<?xml version="1.0" encoding="UTF-8" standalone="no"?>
<!-- Created with Inkscape (http://www.inkscape.org/) -->

<svg
   xmlns:dc="http://purl.org/dc/elements/1.1/"
   xmlns:cc="http://creativecommons.org/ns#"
   xmlns:rdf="http://www.w3.org/1999/02/22-rdf-syntax-ns#"
   xmlns:svg="http://www.w3.org/2000/svg"
   xmlns="http://www.w3.org/2000/svg"
   xmlns:sodipodi="http://sodipodi.sourceforge.net/DTD/sodipodi-0.dtd"
   xmlns:inkscape="http://www.inkscape.org/namespaces/inkscape"
   id="svg3525"
   version="1.1"
   inkscape:version="0.91 r13725"
   width="410"
   height="470"
   viewBox="0 0 410 470"
   sodipodi:docname="profesorek2_ZOPTYMALIZOWANY.svg">
  <metadata
     id="metadata3531">
    <rdf:RDF>
      <cc:Work
         rdf:about="">
        <dc:format>image/svg+xml</dc:format>
        <dc:type
           rdf:resource="http://purl.org/dc/dcmitype/StillImage" />
        <dc:title></dc:title>
      </cc:Work>
    </rdf:RDF>
  </metadata>
  <defs
     id="defs3529">
    <inkscape:path-effect
       effect="spiro"
       id="path-effect6894"
       is_visible="true" />
    <inkscape:path-effect
       effect="spiro"
       id="path-effect6890"
       is_visible="true" />
    <inkscape:path-effect
       effect="spiro"
       id="path-effect4442"
       is_visible="true" />
    <inkscape:path-effect
       effect="spiro"
       id="path-effect4428"
       is_visible="true" />
    <inkscape:path-effect
       is_visible="true"
       id="path-effect9218"
       effect="spiro" />
    <inkscape:path-effect
       is_visible="true"
       id="path-effect9212"
       effect="spiro" />
    <inkscape:path-effect
       is_visible="true"
       id="path-effect9208"
       effect="spiro" />
    <inkscape:path-effect
       is_visible="true"
       id="path-effect9204"
       effect="spiro" />
    <inkscape:path-effect
       is_visible="true"
       id="path-effect9200"
       effect="spiro" />
    <inkscape:path-effect
       is_visible="true"
       id="path-effect9196"
       effect="spiro" />
    <inkscape:path-effect
       is_visible="true"
       id="path-effect9192"
       effect="spiro" />
    <inkscape:path-effect
       is_visible="true"
       id="path-effect6898"
       effect="spiro" />
    <inkscape:path-effect
       is_visible="true"
       id="path-effect6886"
       effect="spiro" />
  </defs>
  <sodipodi:namedview
     pagecolor="#ffffff"
     bordercolor="#666666"
     borderopacity="1"
     objecttolerance="10"
     gridtolerance="10"
     guidetolerance="10"
     inkscape:pageopacity="0"
     inkscape:pageshadow="2"
     inkscape:window-width="1366"
     inkscape:window-height="705"
     id="namedview3527"
     showgrid="false"
     inkscape:zoom="10.24"
     inkscape:cx="202.01339"
     inkscape:cy="164.30429"
     inkscape:window-x="-8"
     inkscape:window-y="-8"
     inkscape:window-maximized="1"
     inkscape:current-layer="layer3"
     showguides="false"
     inkscape:guide-bbox="true">
    <sodipodi:guide
       position="512,-18"
       orientation="0,1"
       id="guide4424" />
  </sodipodi:namedview>
  <g
     inkscape:groupmode="layer"
     id="layer3"
     inkscape:label="Layer 2"
     style="display:inline;opacity:1">
    <path
       style="fill:#d6e4f1;fill-opacity:1;fill-rule:evenodd;stroke:#000000;stroke-width:2.65748024;stroke-linecap:butt;stroke-linejoin:miter;stroke-miterlimit:4;stroke-dasharray:none;stroke-opacity:1"
       d="m 89.672786,167.23879 c -3.799775,5.91473 -9.682181,16.05966 -17.564772,13.40469 -7.882591,-2.65497 -11.730866,-10.3952 -7.395694,-26.80939 -13.055517,11.59104 -26.177297,12.31196 -34.320642,-2.08004 -4.675591,-8.26332 -1.351136,-18.32302 9.822407,-30.73835 -14.830757,4.40142 -21.231884,6.38729 -21.26262,-6.47123 C 18.923122,102.68729 30.795425,81.258085 58.703319,76.64154 38.152776,78.430775 39.639983,68.908736 42.178566,61.503479 47.915881,44.767257 70.331972,38.111539 92.446172,39.663071 79.430827,37.401198 70.358547,27.853951 79.619265,23.138318 98.46879,13.539987 121.36927,27.623329 131.7358,37.351917 182.56811,91.561811 123.06897,131.36465 89.672786,167.23879 Z"
       id="path4444"
       inkscape:connector-curvature="0"
       sodipodi:nodetypes="cscscscscscc" />
    <path
       sodipodi:nodetypes="cccscscscc"
       inkscape:connector-curvature="0"
       id="path4448"
       d="m 79.469678,161.7291 c -6.946106,-3.78088 -6.241723,-19.55731 -2.682077,-28.4587 -23.759223,20.64558 -40.915979,2.36035 -19.426839,-28.30101 -11.60351,4.14935 -16.938566,12.88526 -16.962613,0.76316 C 40.375969,94.554454 60.777587,76.640449 82.612583,72.2883 66.533941,73.975063 63.52369,63.400261 69.030006,57.690369 78.735202,47.626359 100.36459,50.1219 117.66663,51.584573 107.48349,49.452241 97.902218,37.5822 102.33451,36.174449 116.91274,31.544224 128.0468,36.536516 136.15752,45.707935 155.54308,77.498839 101.29684,161.03567 79.469678,161.7291 Z"
       style="fill:#b6c1c7;fill-opacity:1;fill-rule:evenodd;stroke:none;stroke-width:2.65748024;stroke-linecap:butt;stroke-linejoin:miter;stroke-miterlimit:4;stroke-dasharray:none;stroke-opacity:1" />
    <path
       sodipodi:nodetypes="cscscscscscc"
       inkscape:connector-curvature="0"
       id="path4454"
       d="m 327.60873,163.23879 c 3.79978,5.91473 9.68218,16.05966 17.56478,13.40469 7.88259,-2.65497 11.73086,-10.3952 7.39569,-26.80939 13.05552,11.59104 26.1773,12.31196 34.32064,-2.08004 4.67559,-8.26332 1.35114,-18.32302 -9.8224,-30.73835 14.83075,4.40142 21.23188,6.38729 21.26262,-6.47123 0.0283,-11.85718 -11.84396,-33.286385 -39.75186,-37.90293 20.55054,1.789235 19.06334,-7.732804 16.52475,-15.138061 -5.73731,-16.736222 -28.1534,-23.39194 -50.2676,-21.840408 13.01534,-2.261873 22.08762,-11.80912 12.8269,-16.524753 -18.84952,-9.598331 -41.75,4.485011 -52.11653,14.213599 -50.83231,54.209894 8.66683,94.012733 42.06301,129.886873 z"
       style="fill:#d6e4f1;fill-opacity:1;fill-rule:evenodd;stroke:#000000;stroke-width:2.65748024;stroke-linecap:butt;stroke-linejoin:miter;stroke-miterlimit:4;stroke-dasharray:none;stroke-opacity:1" />
    <path
       style="fill:#b6c1c7;fill-opacity:1;fill-rule:evenodd;stroke:none;stroke-width:2.65748024;stroke-linecap:butt;stroke-linejoin:miter;stroke-miterlimit:4;stroke-dasharray:none;stroke-opacity:1"
       d="m 337.81184,157.7291 c 6.94611,-3.78088 6.24173,-19.55731 2.68208,-28.4587 23.75922,20.64558 40.91598,2.36035 19.42684,-28.30101 11.60351,4.14935 16.93856,12.88526 16.96261,0.76316 0.0222,-11.178096 -20.37944,-29.092101 -42.21443,-33.44425 16.07864,1.686763 19.08889,-8.888039 13.58257,-14.597931 C 338.54632,43.626359 316.91693,46.1219 299.61489,47.584573 309.79803,45.452241 319.3793,33.5822 314.94701,32.174449 300.36878,27.544224 289.23472,32.536516 281.124,41.707935 261.73844,73.498839 315.98468,157.03567 337.81184,157.7291 Z"
       id="path4456"
       inkscape:connector-curvature="0"
       sodipodi:nodetypes="cccscscscc" />
    <path
       style="fill:#fbc9b2;fill-opacity:1;fill-rule:evenodd;stroke:#000000;stroke-width:2.65748024;stroke-linecap:butt;stroke-linejoin:miter;stroke-miterlimit:4;stroke-dasharray:none;stroke-opacity:1"
       d="m 85.974939,246.219 c 0,0 -1.268003,-28.85114 1.848924,-59.10428 3.116927,-30.25314 10.839377,-54.70018 16.210937,-66.01971 -8.029161,4.69596 -24.521907,6.53866 -31.870708,-1.40992 -7.348802,-7.94858 -5.479887,-19.5966 -0.270769,-25.502006 5.209118,-5.905401 11.687757,-5.269794 18.703925,-4.136849 7.016168,1.132945 13.186212,4.783679 24.960462,19.413695 26.1555,-41.587595 32.12015,-47.359793 54.49679,-53.843091 22.37664,-6.483298 53.74232,-6.406671 77.76694,1.148774 24.02462,7.555445 49.49906,27.641868 52.85973,46.223087 6.36518,-11.232668 21.00677,-17.061108 30.96947,-17.333658 9.9627,-0.27255 14.71579,8.729996 15.94696,17.333658 1.23117,8.60366 -5.13475,13.43601 -12.018,16.64031 -6.88325,3.2043 -13.14407,2.44705 -24.96046,-1.84892 7.36619,7.95315 21.33128,60.45033 21.53339,92.78264 0.2021,32.33231 -0.50189,35.65602 -0.50189,35.65602 z"
       id="path4392"
       inkscape:connector-curvature="0"
       sodipodi:nodetypes="czczzzczzczzzczcc" />
    <path
       style="opacity:0.98999999;fill:#ffffff;fill-opacity:1;stroke:#000000;stroke-width:2.68144202;stroke-linecap:butt;stroke-miterlimit:4;stroke-dasharray:none;stroke-opacity:1"
       d="m 81.533426,305.83557 253.993184,0 -4.18342,-58.87214 -245.626335,0 z"
       id="rect4216"
       inkscape:connector-curvature="0"
       sodipodi:nodetypes="ccccc" />
    <path
       sodipodi:nodetypes="ccccc"
       inkscape:connector-curvature="0"
       id="path4380"
       d="m 207.54721,267.27082 12.00276,0 25.07947,-38.9221 -65.39321,0.27029 z"
       style="opacity:1;fill:#ff0000;fill-opacity:1;stroke:#000000;stroke-width:2.65748024;stroke-linecap:butt;stroke-miterlimit:4;stroke-dasharray:none;stroke-opacity:1" />
    <path
       style="display:inline;fill:#d6e4f1;fill-opacity:1;fill-rule:evenodd;stroke:#000000;stroke-width:2.65748024;stroke-miterlimit:4;stroke-dasharray:none;stroke-opacity:1"
       d="m 276.89542,172.10177 c -24.28663,3.34596 -128.88177,-1.22987 -158.71212,12.71934 -19.359622,9.05291 -16.86971,27.57908 -12.03021,34.66829 4.33656,6.35248 8.4102,6.95874 22.30688,-5.61849 -16.29278,20.17884 18.47716,36.42937 32.64937,20.46697 -3.17216,8.94998 -2.62545,14.18744 3.78956,19.86418 6.41501,5.67674 28.59737,2.6236 32.13781,-8.4157 0.99363,7.1772 29.16923,18.46956 35.67245,4.25625 4.11593,4.38251 35.13927,6.44204 26.45179,-19.24557 17.76126,15.30662 41.32454,-1.63431 33.67493,-20.38269 8.78075,6.15109 16.1672,3.07466 19.1654,-0.30962 2.99821,-3.38431 3.40243,-15.41342 -1.47855,-20.78488 -4.88099,-5.37146 -33.62731,-17.21808 -33.62731,-17.21808 z"
       id="path9970"
       inkscape:connector-curvature="0"
       sodipodi:nodetypes="csscczcccczzc" />
    <path
       sodipodi:nodetypes="ccscczcccczzc"
       inkscape:connector-curvature="0"
       id="path4464"
       d="m 263.80425,174.24048 c -19.80707,2.42275 -133.72589,15.52212 -133.72589,15.52212 -14.01972,5.66992 -15.06846,12.23721 -5.5238,18.79035 4.96222,3.40694 6.85898,5.03869 18.19247,-4.06824 -13.28765,14.6111 15.06914,26.37781 26.62735,14.81974 -2.58707,6.4805 -2.1412,10.27284 3.09059,14.38326 5.23179,4.11042 23.32272,1.8997 26.21015,-6.09364 0.81035,5.19687 23.78909,13.37345 29.09282,3.08186 3.35677,3.1733 28.658,4.66457 21.57288,-13.93533 14.48528,11.08323 33.70243,-1.18338 27.46375,-14.75871 7.16119,4.45388 13.18523,2.2263 15.63043,-0.2242 2.44521,-2.4505 2.77486,-11.16056 -1.20584,-15.04993 -3.98071,-3.88937 -27.42491,-12.46728 -27.42491,-12.46728 z"
       style="display:inline;fill:#b6c1c7;fill-opacity:1;fill-rule:evenodd;stroke:none;stroke-width:2.08480406;stroke-miterlimit:4;stroke-dasharray:none;stroke-opacity:1" />
    <path
       inkscape:connector-curvature="0"
       style="display:inline;fill:#fbc9b2;fill-opacity:1;fill-rule:evenodd;stroke:#000000;stroke-width:2.65748031;stroke-miterlimit:4;stroke-dasharray:none;stroke-opacity:1"
       d="m 150.38801,198.17712 c -8.32369,-8.29874 -15.15883,-19.99416 -15.16618,-32.36561 -0.004,-7.52582 3.84099,-21.39703 8.73516,-26.91609 l 9.35016,-10.54399 c 8.98893,1.34536 13.606,1.25288 16.93445,-1.58082 9.43801,-5.73502 19.53198,-13.25815 22.09049,-27.075879 1.4314,-7.730587 4.08332,-10.08792 9.23241,-11.943891 7.67646,-2.766951 16.60731,0.028 20.5716,4.904206 3.9643,4.876205 -1.82298,31.575094 30.90834,34.957854 5.59069,1.93058 8.75754,2.23115 12.43787,5.84622 18.80309,24.19901 13.52311,52.63621 -12.95,69.88607 -18.63174,12.14043 -43.91725,15.338 -69.75446,10.39294 -12.29712,-2.35358 -25.95517,-9.14559 -32.38984,-15.56096 z"
       id="path8800"
       sodipodi:nodetypes="ccsccsszccsscc" />
    <circle
       style="opacity:0.98999999;fill:#d5f1ff;fill-opacity:1;stroke:none;stroke-width:2.83464575;stroke-linecap:butt;stroke-miterlimit:4;stroke-dasharray:none;stroke-opacity:1"
       id="path4234"
       cx="158.82281"
       cy="96.006798"
       r="32.31699" />
    <circle
       r="32.31699"
       cy="93.797089"
       cx="257.37524"
       id="circle4242"
       style="opacity:0.98999999;fill:#d5f1ff;fill-opacity:1;stroke:none;stroke-width:2.83464575;stroke-linecap:butt;stroke-miterlimit:4;stroke-dasharray:none;stroke-opacity:1" />
    <path
       style="display:inline;opacity:0.98999999;fill:#3c4952;fill-opacity:1;stroke:#000000;stroke-width:2.65748024;stroke-linecap:butt;stroke-miterlimit:4;stroke-dasharray:none;stroke-opacity:1"
       d="m 329.43524,73.79904 -36.67645,12.155482 c -2.2653,-10.061788 -8.68487,-18.688173 -17.66783,-23.741382 -17.54993,-9.840074 -39.76361,-3.572592 -49.61549,13.998767 -1.93405,3.47386 -3.2878,7.240179 -4.00768,11.149912 -9.22572,-5.697045 -17.91416,-5.930853 -27.08106,-0.194379 -2.4347,-9.699701 -8.74584,-17.96847 -17.45553,-22.869996 -17.54979,-9.838755 -39.76228,-3.570967 -49.61378,13.999722 -3.02443,5.404161 -4.62477,11.488458 -4.65021,17.679541 L 87.366012,83.646242 86.105236,93.830618 124.2087,106.66636 c 2.71785,9.02973 8.82809,16.65057 17.04729,21.2618 17.54993,9.84007 39.7636,3.57258 49.61548,-13.99877 3.01439,-5.38331 4.61563,-11.44235 4.65392,-17.610289 9.29808,-5.439598 15.80935,-6.690614 25.3927,0.04268 0.77108,12.334259 7.73384,23.431689 18.49766,29.482069 17.54992,9.84007 39.7636,3.57259 49.61548,-13.99876 2.50987,-4.50081 4.0387,-9.48172 4.48575,-14.61455 l 41.07479,-14.64475 z m -58.93523,-5.103704 c 13.99304,7.846166 19.45619,24.716275 11.39625,39.090994 -8.05993,14.37472 -26.26313,18.03329 -38.94883,11.16928 C 228.95384,111.1104 226.1403,92.155047 232.52906,80.519068 238.90912,68.898937 256.50614,60.84909 270.50001,68.695336 Z m -99.07908,1.89768 c 13.99359,7.845209 21.29464,25.041466 13.23549,39.417084 -8.05965,14.37621 -27.45402,17.72585 -39.7686,10.84319 -12.31458,-6.88266 -18.4963,-24.800138 -10.57913,-39.254409 6.26215,-11.432725 23.93627,-18.196707 37.11224,-11.005865 z"
       id="path5217"
       inkscape:connector-curvature="0"
       sodipodi:nodetypes="ccccccccccccccccccccccscsccszsc" />
    <path
       style="opacity:1;fill:#ffffff;fill-opacity:1;stroke:#000000;stroke-width:2.62179399;stroke-linecap:butt;stroke-miterlimit:4;stroke-dasharray:none;stroke-opacity:1"
       d="m 9.1367103,306.56216 394.3822397,-4.4e-4 0,156.26265 -394.3822397,0 z"
       id="rect4430"
       inkscape:connector-curvature="0"
       sodipodi:nodetypes="ccccc" />
    <g
       id="g4432"
       style="fill:#fbc9b2;fill-opacity:1;stroke-width:2.65748024;stroke-miterlimit:4;stroke-dasharray:none">
      <path
         sodipodi:nodetypes="zzzzz"
         inkscape:connector-curvature="0"
         id="path4407"
         d="m 78.919494,311.21021 c -2.118369,8.22484 -9.504728,16.55303 -17.081926,14.90802 -7.577209,-1.645 -6.198122,-14.06014 -4.110911,-20.58743 2.087213,-6.5273 8.791635,-15.06061 15.144929,-13.96314 6.353308,1.09744 8.166268,11.41772 6.047908,19.64255 z"
         style="fill:#fbc9b2;fill-opacity:1;fill-rule:evenodd;stroke:#000000;stroke-width:2.65748024;stroke-linecap:butt;stroke-linejoin:miter;stroke-miterlimit:4;stroke-dasharray:none;stroke-opacity:1" />
      <path
         style="fill:#fbc9b2;fill-opacity:1;fill-rule:evenodd;stroke:#000000;stroke-width:2.65748024;stroke-linecap:butt;stroke-linejoin:miter;stroke-miterlimit:4;stroke-dasharray:none;stroke-opacity:1"
         d="m 99.969184,307.69166 c 0.812876,9.35103 -3.71018,20.66716 -12.03358,21.61723 -8.323412,0.95008 -11.405299,-12.52398 -11.636226,-20.08816 -0.230927,-7.56418 3.522398,-18.85452 10.399472,-19.94597 6.87708,-1.09147 12.457447,9.06586 13.270334,18.4169 z"
         id="path4405"
         inkscape:connector-curvature="0"
         sodipodi:nodetypes="zzzzz" />
      <path
         sodipodi:nodetypes="zzzzz"
         inkscape:connector-curvature="0"
         id="path4394"
         d="m 115.55772,302.2102 c 3.73479,8.47802 3.3277,20.12794 -3.81341,23.11154 -7.14112,2.98361 -14.231991,-8.75016 -16.871426,-15.71585 -2.639435,-6.96569 -2.912718,-18.39733 2.888943,-21.14706 5.801663,-2.74974 14.061093,5.27336 17.795893,13.75137 z"
         style="fill:#fbc9b2;fill-opacity:1;fill-rule:evenodd;stroke:#000000;stroke-width:2.65748024;stroke-linecap:butt;stroke-linejoin:miter;stroke-miterlimit:4;stroke-dasharray:none;stroke-opacity:1" />
      <path
         sodipodi:nodetypes="zzzzz"
         inkscape:connector-curvature="0"
         id="path4407-2"
         d="m 356.77703,309.88454 c 2.20582,8.47177 9.89713,17.05 17.78715,15.3556 7.89003,-1.69438 6.454,-14.48227 4.28062,-21.20553 -2.17338,-6.72327 -9.1546,-15.51279 -15.77018,-14.38237 -6.6156,1.13039 -8.50341,11.76053 -6.29759,20.2323 z"
         style="display:inline;opacity:1;fill:#fbc9b2;fill-opacity:1;fill-rule:evenodd;stroke:#000000;stroke-width:2.65748024;stroke-linecap:butt;stroke-linejoin:miter;stroke-miterlimit:4;stroke-dasharray:none;stroke-opacity:1" />
      <path
         style="display:inline;opacity:1;fill:#fbc9b2;fill-opacity:1;fill-rule:evenodd;stroke:#000000;stroke-width:2.65748024;stroke-linecap:butt;stroke-linejoin:miter;stroke-miterlimit:4;stroke-dasharray:none;stroke-opacity:1"
         d="m 334.85831,306.26035 c -0.84643,9.63178 3.86335,21.28765 12.53038,22.26625 8.66704,0.9786 11.87616,-12.89999 12.11663,-20.69127 0.24045,-7.79129 -3.66782,-19.42061 -10.82881,-20.54483 -7.161,-1.12424 -12.97175,9.33806 -13.8182,18.96985 z"
         id="path4405-1"
         inkscape:connector-curvature="0"
         sodipodi:nodetypes="zzzzz" />
      <path
         sodipodi:nodetypes="zzzzz"
         inkscape:connector-curvature="0"
         id="path4394-1"
         d="m 318.62622,300.61432 c -3.88898,8.73255 -3.46508,20.73224 3.97084,23.80542 7.43594,3.07319 14.81955,-9.01287 17.56795,-16.18769 2.74841,-7.17482 3.03297,-18.94969 -3.00821,-21.78197 -6.04118,-2.8323 -14.64159,5.43168 -18.53058,14.16424 z"
         style="display:inline;opacity:1;fill:#fbc9b2;fill-opacity:1;fill-rule:evenodd;stroke:#000000;stroke-width:2.65748024;stroke-linecap:butt;stroke-linejoin:miter;stroke-miterlimit:4;stroke-dasharray:none;stroke-opacity:1" />
    </g>
    <path
       style="fill:#b6c1c7;fill-opacity:1;fill-rule:evenodd;stroke:#000000;stroke-width:2.65748024;stroke-linecap:butt;stroke-linejoin:miter;stroke-miterlimit:4;stroke-dasharray:none;stroke-opacity:1"
       d="m 184.5866,18.052899 c 1.24368,5.811701 2.35148,11.601259 2.36964,17.077733 -4.81662,-0.305536 -14.35842,0.577031 -32.35781,10.132245 2.42595,-17.227977 16.50828,-27.206094 29.98817,-27.209978 z"
       id="path4450"
       inkscape:connector-curvature="0"
       sodipodi:nodetypes="cccc" />
    <path
       sodipodi:nodetypes="cccc"
       inkscape:connector-curvature="0"
       id="path4452"
       d="m 232.68881,16.806401 c -0.58998,5.811701 -0.88067,11.356124 -0.89883,16.832598 9.22905,0.675004 13.94986,0.577031 31.70412,7.354049 -2.42595,-17.227977 -17.3254,-24.182763 -30.80529,-24.186647 z"
       style="fill:#b6c1c7;fill-opacity:1;fill-rule:evenodd;stroke:#000000;stroke-width:2.65748024;stroke-linecap:butt;stroke-linejoin:miter;stroke-miterlimit:4;stroke-dasharray:none;stroke-opacity:1" />
    <g
       id="g4244"
       transform="translate(-8,-2)"
       style="">
      <ellipse
         style="opacity:1;fill:#000000;fill-opacity:1;stroke:#000000;stroke-width:0.46213514;stroke-linecap:butt;stroke-miterlimit:4;stroke-dasharray:none;stroke-opacity:1"
         id="ellipse4442"
         cx="164.51709"
         cy="97.313004"
         rx="6.073987"
         ry="6.0739865" />
      <circle
         r="2.6181743"
         cy="96.055237"
         cx="163.1675"
         id="path4458"
         style="opacity:1;fill:#ffffff;fill-opacity:1;stroke:none;stroke-width:1.77165353;stroke-linecap:butt;stroke-miterlimit:4;stroke-dasharray:none;stroke-opacity:1" />
    </g>
    <g
       id="g4248"
       style="">
      <ellipse
         ry="6.0739865"
         rx="6.073987"
         cy="95.025078"
         cx="245.70729"
         id="path4440"
         style="opacity:1;fill:#000000;fill-opacity:1;stroke:#000000;stroke-width:0.46213514;stroke-linecap:butt;stroke-miterlimit:4;stroke-dasharray:none;stroke-opacity:1" />
      <circle
         style="opacity:1;fill:#ffffff;fill-opacity:1;stroke:none;stroke-width:1.77165353;stroke-linecap:butt;stroke-miterlimit:4;stroke-dasharray:none;stroke-opacity:1"
         id="circle4462"
         cx="244.35037"
         cy="93.728394"
         r="2.6181743" />
    </g>
    <path
       style="fill:none;fill-rule:evenodd;stroke:#000000;stroke-width:2.83464575;stroke-linecap:butt;stroke-linejoin:miter;stroke-miterlimit:4;stroke-dasharray:none;stroke-opacity:1"
       d="m 80.035436,100.35717 c 9.117008,-0.12607 14.563876,2.24964 16.572815,12.70583"
       id="path3393"
       inkscape:connector-curvature="0"
       sodipodi:nodetypes="cc" />
    <path
       sodipodi:nodetypes="cc"
       inkscape:connector-curvature="0"
       id="path4195"
       d="m 83.201735,113.2894 c 0.742754,-3.54565 3.596526,-6.80504 8.668752,-8.97601"
       style="fill:none;fill-rule:evenodd;stroke:#000000;stroke-width:2.83464575;stroke-linecap:butt;stroke-linejoin:miter;stroke-miterlimit:4;stroke-dasharray:none;stroke-opacity:1" />
    <path
       sodipodi:nodetypes="cc"
       inkscape:connector-curvature="0"
       id="path4197"
       d="m 331.4376,97.720401 c -9.117,-0.12607 -14.56387,2.24965 -16.57281,12.705879"
       style="fill:none;fill-rule:evenodd;stroke:#000000;stroke-width:2.83464575;stroke-linecap:butt;stroke-linejoin:miter;stroke-miterlimit:4;stroke-dasharray:none;stroke-opacity:1" />
    <path
       style="fill:none;fill-rule:evenodd;stroke:#000000;stroke-width:2.83464575;stroke-linecap:butt;stroke-linejoin:miter;stroke-miterlimit:4;stroke-dasharray:none;stroke-opacity:1"
       d="m 328.2713,110.65268 c -0.74275,-3.54566 -3.59652,-6.80506 -8.66875,-8.97604"
       id="path4199"
       inkscape:connector-curvature="0"
       sodipodi:nodetypes="cc" />
    <path
       sodipodi:nodetypes="cc"
       inkscape:connector-curvature="0"
       id="path4201"
       d="m 111.41803,161.24449 c 0.45438,13.07554 3.86741,17.56714 8.41039,22.18306"
       style="fill:none;fill-rule:evenodd;stroke:#000000;stroke-width:2.83464575;stroke-linecap:butt;stroke-linejoin:miter;stroke-miterlimit:4;stroke-dasharray:none;stroke-opacity:1" />
    <path
       style="fill:none;fill-rule:evenodd;stroke:#000000;stroke-width:2.48031497;stroke-linecap:butt;stroke-linejoin:miter;stroke-miterlimit:4;stroke-dasharray:none;stroke-opacity:1"
       d="m 120.85689,159.93802 c -10.13335,0.64214 -16.36212,2.67169 -21.825516,8.74362"
       id="path4212"
       inkscape:connector-curvature="0"
       sodipodi:nodetypes="cc" />
    <path
       style="fill:none;fill-rule:evenodd;stroke:#000000;stroke-width:2.83464575;stroke-linecap:butt;stroke-linejoin:miter;stroke-miterlimit:4;stroke-dasharray:none;stroke-opacity:1"
       d="m 304.07437,161.13383 c -0.0935,8.62554 -0.45542,13.196 -5.78496,19.90922"
       id="path4214"
       inkscape:connector-curvature="0"
       sodipodi:nodetypes="cc" />
    <path
       style="fill:none;fill-rule:evenodd;stroke:#000000;stroke-width:1.77165353;stroke-linecap:butt;stroke-linejoin:miter;stroke-miterlimit:4;stroke-dasharray:none;stroke-opacity:1"
       d="m 105.46875,246.75781 106.44531,51.95313 98.1272,-51.59979"
       id="path4220"
       inkscape:connector-curvature="0"
       sodipodi:nodetypes="ccc" />
    <path
       style="opacity:1;fill:#ff0000;fill-opacity:1;stroke:#000000;stroke-width:2.59803367;stroke-linecap:butt;stroke-miterlimit:4;stroke-dasharray:none;stroke-opacity:1"
       d="m 207.53369,267.74991 12.04016,0 11.11399,37.47383 -37.50971,-0.22048 z"
       id="rect4349"
       inkscape:connector-curvature="0"
       sodipodi:nodetypes="ccccc" />
    <path
       style="fill:none;fill-rule:evenodd;stroke:#000000;stroke-width:1.77165353;stroke-linecap:butt;stroke-linejoin:miter;stroke-miterlimit:4;stroke-dasharray:none;stroke-opacity:1"
       d="m 114.62864,262.5636 22.3733,21.26844 16.02039,-4.41942 0.27621,17.12525 33.14563,-0.27622"
       id="path4222"
       inkscape:connector-curvature="0" />
    <path
       inkscape:connector-curvature="0"
       id="path4224"
       d="m 301.23529,259.52525 -20.71602,23.20194 -17.12524,-3.03836 2.20971,16.84904 -31.76456,2.76213"
       style="fill:none;fill-rule:evenodd;stroke:#000000;stroke-width:1.77165353;stroke-linecap:butt;stroke-linejoin:miter;stroke-miterlimit:4;stroke-dasharray:none;stroke-opacity:1"
       sodipodi:nodetypes="ccccc" />
    <path
       style="fill:none;fill-rule:evenodd;stroke:#000000;stroke-width:3.15417266;stroke-linecap:butt;stroke-linejoin:miter;stroke-miterlimit:4;stroke-dasharray:none;stroke-opacity:1"
       d="m 326.54201,286.59418 -29.40308,0 0,-0.44978"
       id="path4230"
       inkscape:connector-curvature="0" />
    <path
       style="fill:#476e95;fill-opacity:1;fill-rule:evenodd;stroke:#000000;stroke-width:0.82917154px;stroke-linecap:butt;stroke-linejoin:miter;stroke-opacity:1"
       d="m 311.72534,304.25825 1.06355,-17.65402 -2.83611,-1.66456 c 0,0 1.32575,-16.4961 1.70166,-18.03274 1.42508,-5.82544 6.07337,-0.78367 5.6722,6.10339 l -1.89073,31.24793 z"
       id="path4226"
       inkscape:connector-curvature="0"
       sodipodi:nodetypes="cccsscc" />
    <path
       style="fill:#ffdccc;fill-rule:evenodd;stroke:none;stroke-width:1px;stroke-linecap:butt;stroke-linejoin:miter;stroke-opacity:1;fill-opacity:1"
       d="m 240.58203,188.81457 c -5.1765,-4.64554 0.53465,-14.06904 4.69564,-18.78253 4.16099,-4.71349 12.24829,-10.14148 17.12524,-6.62912 4.87695,3.51236 3.11826,12.29073 -0.82864,17.67767 -3.9469,5.38694 -15.81574,12.37952 -20.99224,7.73398 z"
       id="path4252"
       inkscape:connector-curvature="0"
       sodipodi:nodetypes="zzzzz" />
    <path
       sodipodi:nodetypes="zzzzz"
       inkscape:connector-curvature="0"
       id="path4254"
       d="m 229.30746,195.84776 c -1.872,-1.10596 -0.70028,-4.34518 0.28561,-6.04549 0.98588,-1.70033 3.13134,-3.86081 4.84192,-3.08379 1.71059,0.77703 1.71071,3.57573 0.83181,5.46933 -0.87889,1.89359 -4.08734,4.76592 -5.95934,3.65995 z"
       style="fill:#ffdccc;fill-rule:evenodd;stroke:none;stroke-width:0.31260625px;stroke-linecap:butt;stroke-linejoin:miter;stroke-opacity:1;fill-opacity:1" />
    <path
       style="fill:#ffffff;fill-rule:evenodd;stroke:none;stroke-width:1px;stroke-linecap:butt;stroke-linejoin:miter;stroke-opacity:1"
       d="m 133.63911,95.088681 c 4.31412,-16.797426 9.78183,-18.660244 10.5963,-18.745934 1.27673,-0.134324 3.89498,1.776944 4.49218,3.320313 0.5972,1.543369 -7.49852,2.225196 -15.08848,15.425621 z"
       id="path4256"
       inkscape:connector-curvature="0"
       sodipodi:nodetypes="cssc" />
    <path
       sodipodi:nodetypes="cssc"
       inkscape:connector-curvature="0"
       id="path4258"
       d="m 232.79979,92.326545 c 4.31412,-16.797426 9.78183,-18.660244 10.5963,-18.745934 1.27673,-0.134324 3.89498,1.776944 4.49218,3.320313 0.5972,1.543369 -7.49852,2.225196 -15.08848,15.425621 z"
       style="fill:#ffffff;fill-rule:evenodd;stroke:none;stroke-width:1px;stroke-linecap:butt;stroke-linejoin:miter;stroke-opacity:1" />
  </g>
</svg>
